<mxfile host="app.diagrams.net" agent="Mozilla/5.0 (Windows NT 10.0; Win64; x64) AppleWebKit/537.36 (KHTML, like Gecko) Chrome/124.0.0.0 Safari/537.36" version="24.7.17">
  <diagram name="Page-1" id="5f0bae14-7c28-e335-631c-24af17079c00">
    <mxGraphModel dx="877" dy="366" grid="1" gridSize="10" guides="1" tooltips="1" connect="1" arrows="1" fold="1" page="1" pageScale="1" pageWidth="1100" pageHeight="850" background="none" math="0" shadow="0">
      <root>
        <mxCell id="0" />
        <mxCell id="1" parent="0" />
        <mxCell id="b6-UkwE3wFQKwUGQj949-1" value="" style="rounded=0;whiteSpace=wrap;html=1;" vertex="1" parent="1">
          <mxGeometry y="90" width="1180" height="580" as="geometry" />
        </mxCell>
        <mxCell id="b6-UkwE3wFQKwUGQj949-2" value="" style="html=1;dropTarget=0;whiteSpace=wrap;" vertex="1" parent="1">
          <mxGeometry x="135" y="110" width="510" height="530" as="geometry" />
        </mxCell>
        <mxCell id="b6-UkwE3wFQKwUGQj949-3" value="" style="shape=module;jettyWidth=8;jettyHeight=4;" vertex="1" parent="b6-UkwE3wFQKwUGQj949-2">
          <mxGeometry x="1" width="20" height="20" relative="1" as="geometry">
            <mxPoint x="-42" y="7" as="offset" />
          </mxGeometry>
        </mxCell>
        <mxCell id="b6-UkwE3wFQKwUGQj949-4" value="&amp;lt;&amp;lt;subsystem&amp;gt;&amp;gt; Front-end" style="text;align=center;fontStyle=1;verticalAlign=middle;spacingLeft=3;spacingRight=3;strokeColor=none;rotatable=0;points=[[0,0.5],[1,0.5]];portConstraint=eastwest;html=1;" vertex="1" parent="1">
          <mxGeometry x="350" y="120" width="80" height="26" as="geometry" />
        </mxCell>
        <mxCell id="b6-UkwE3wFQKwUGQj949-5" value="Autenticação" style="html=1;dropTarget=0;whiteSpace=wrap;" vertex="1" parent="1">
          <mxGeometry x="226" y="193.5" width="133.33" height="50" as="geometry" />
        </mxCell>
        <mxCell id="b6-UkwE3wFQKwUGQj949-6" value="" style="shape=module;jettyWidth=8;jettyHeight=4;" vertex="1" parent="b6-UkwE3wFQKwUGQj949-5">
          <mxGeometry x="1" width="20" height="20" relative="1" as="geometry">
            <mxPoint x="-27" y="7" as="offset" />
          </mxGeometry>
        </mxCell>
        <mxCell id="b6-UkwE3wFQKwUGQj949-7" value="" style="ellipse;whiteSpace=wrap;html=1;aspect=fixed;" vertex="1" parent="1">
          <mxGeometry x="25" y="210" width="20" height="20" as="geometry" />
        </mxCell>
        <mxCell id="b6-UkwE3wFQKwUGQj949-8" value="" style="endArrow=none;html=1;rounded=0;exitX=1;exitY=0.5;exitDx=0;exitDy=0;" edge="1" parent="1" source="b6-UkwE3wFQKwUGQj949-10" target="b6-UkwE3wFQKwUGQj949-5">
          <mxGeometry width="50" height="50" relative="1" as="geometry">
            <mxPoint x="486" y="420" as="sourcePoint" />
            <mxPoint x="536" y="370" as="targetPoint" />
          </mxGeometry>
        </mxCell>
        <mxCell id="b6-UkwE3wFQKwUGQj949-9" value="" style="endArrow=none;html=1;rounded=0;exitX=1;exitY=0.5;exitDx=0;exitDy=0;" edge="1" parent="1" source="b6-UkwE3wFQKwUGQj949-12" target="b6-UkwE3wFQKwUGQj949-10">
          <mxGeometry width="50" height="50" relative="1" as="geometry">
            <mxPoint x="45" y="220" as="sourcePoint" />
            <mxPoint x="175" y="220" as="targetPoint" />
          </mxGeometry>
        </mxCell>
        <mxCell id="b6-UkwE3wFQKwUGQj949-10" value="" style="whiteSpace=wrap;html=1;aspect=fixed;" vertex="1" parent="1">
          <mxGeometry x="219" y="211" width="15" height="15" as="geometry" />
        </mxCell>
        <mxCell id="b6-UkwE3wFQKwUGQj949-11" value="" style="endArrow=none;html=1;rounded=0;exitX=1;exitY=0.5;exitDx=0;exitDy=0;" edge="1" parent="1" source="b6-UkwE3wFQKwUGQj949-7" target="b6-UkwE3wFQKwUGQj949-12">
          <mxGeometry width="50" height="50" relative="1" as="geometry">
            <mxPoint x="45" y="220" as="sourcePoint" />
            <mxPoint x="248" y="219" as="targetPoint" />
          </mxGeometry>
        </mxCell>
        <mxCell id="b6-UkwE3wFQKwUGQj949-12" value="" style="ellipse;whiteSpace=wrap;html=1;aspect=fixed;" vertex="1" parent="1">
          <mxGeometry x="180" y="210" width="20" height="20" as="geometry" />
        </mxCell>
        <mxCell id="b6-UkwE3wFQKwUGQj949-13" value="" style="whiteSpace=wrap;html=1;aspect=fixed;" vertex="1" parent="1">
          <mxGeometry x="127" y="212" width="15" height="15" as="geometry" />
        </mxCell>
        <mxCell id="b6-UkwE3wFQKwUGQj949-14" value="Student" style="html=1;dropTarget=0;whiteSpace=wrap;" vertex="1" parent="1">
          <mxGeometry x="226" y="308" width="133.33" height="50" as="geometry" />
        </mxCell>
        <mxCell id="b6-UkwE3wFQKwUGQj949-15" value="" style="shape=module;jettyWidth=8;jettyHeight=4;" vertex="1" parent="b6-UkwE3wFQKwUGQj949-14">
          <mxGeometry x="1" width="20" height="20" relative="1" as="geometry">
            <mxPoint x="-27" y="7" as="offset" />
          </mxGeometry>
        </mxCell>
        <mxCell id="b6-UkwE3wFQKwUGQj949-16" value="" style="ellipse;whiteSpace=wrap;html=1;aspect=fixed;" vertex="1" parent="1">
          <mxGeometry x="25" y="325" width="20" height="20" as="geometry" />
        </mxCell>
        <mxCell id="b6-UkwE3wFQKwUGQj949-17" value="" style="endArrow=none;html=1;rounded=0;exitX=1;exitY=0.5;exitDx=0;exitDy=0;" edge="1" parent="1" source="b6-UkwE3wFQKwUGQj949-20" target="b6-UkwE3wFQKwUGQj949-18">
          <mxGeometry width="50" height="50" relative="1" as="geometry">
            <mxPoint x="45" y="345" as="sourcePoint" />
            <mxPoint x="175" y="345" as="targetPoint" />
          </mxGeometry>
        </mxCell>
        <mxCell id="b6-UkwE3wFQKwUGQj949-18" value="" style="whiteSpace=wrap;html=1;aspect=fixed;" vertex="1" parent="1">
          <mxGeometry x="219" y="326" width="15" height="15" as="geometry" />
        </mxCell>
        <mxCell id="b6-UkwE3wFQKwUGQj949-19" value="" style="endArrow=none;html=1;rounded=0;exitX=1;exitY=0.5;exitDx=0;exitDy=0;" edge="1" parent="1" source="b6-UkwE3wFQKwUGQj949-16" target="b6-UkwE3wFQKwUGQj949-20">
          <mxGeometry width="50" height="50" relative="1" as="geometry">
            <mxPoint x="45" y="335" as="sourcePoint" />
            <mxPoint x="248" y="334" as="targetPoint" />
          </mxGeometry>
        </mxCell>
        <mxCell id="b6-UkwE3wFQKwUGQj949-20" value="" style="ellipse;whiteSpace=wrap;html=1;aspect=fixed;" vertex="1" parent="1">
          <mxGeometry x="180" y="325" width="20" height="20" as="geometry" />
        </mxCell>
        <mxCell id="b6-UkwE3wFQKwUGQj949-21" value="" style="whiteSpace=wrap;html=1;aspect=fixed;" vertex="1" parent="1">
          <mxGeometry x="127" y="327" width="15" height="15" as="geometry" />
        </mxCell>
        <mxCell id="b6-UkwE3wFQKwUGQj949-22" value="Teacher" style="html=1;dropTarget=0;whiteSpace=wrap;" vertex="1" parent="1">
          <mxGeometry x="226" y="450" width="133.33" height="50" as="geometry" />
        </mxCell>
        <mxCell id="b6-UkwE3wFQKwUGQj949-23" value="" style="shape=module;jettyWidth=8;jettyHeight=4;" vertex="1" parent="b6-UkwE3wFQKwUGQj949-22">
          <mxGeometry x="1" width="20" height="20" relative="1" as="geometry">
            <mxPoint x="-27" y="7" as="offset" />
          </mxGeometry>
        </mxCell>
        <mxCell id="b6-UkwE3wFQKwUGQj949-24" value="" style="ellipse;whiteSpace=wrap;html=1;aspect=fixed;" vertex="1" parent="1">
          <mxGeometry x="25" y="465" width="20" height="20" as="geometry" />
        </mxCell>
        <mxCell id="b6-UkwE3wFQKwUGQj949-25" value="" style="endArrow=none;html=1;rounded=0;exitX=1;exitY=0.5;exitDx=0;exitDy=0;" edge="1" parent="1" source="b6-UkwE3wFQKwUGQj949-28" target="b6-UkwE3wFQKwUGQj949-26">
          <mxGeometry width="50" height="50" relative="1" as="geometry">
            <mxPoint x="45" y="475" as="sourcePoint" />
            <mxPoint x="175" y="475" as="targetPoint" />
          </mxGeometry>
        </mxCell>
        <mxCell id="b6-UkwE3wFQKwUGQj949-26" value="" style="whiteSpace=wrap;html=1;aspect=fixed;" vertex="1" parent="1">
          <mxGeometry x="219" y="466" width="15" height="15" as="geometry" />
        </mxCell>
        <mxCell id="b6-UkwE3wFQKwUGQj949-27" value="" style="endArrow=none;html=1;rounded=0;exitX=1;exitY=0.5;exitDx=0;exitDy=0;" edge="1" parent="1" source="b6-UkwE3wFQKwUGQj949-24" target="b6-UkwE3wFQKwUGQj949-28">
          <mxGeometry width="50" height="50" relative="1" as="geometry">
            <mxPoint x="45" y="475" as="sourcePoint" />
            <mxPoint x="248" y="474" as="targetPoint" />
          </mxGeometry>
        </mxCell>
        <mxCell id="b6-UkwE3wFQKwUGQj949-28" value="" style="ellipse;whiteSpace=wrap;html=1;aspect=fixed;" vertex="1" parent="1">
          <mxGeometry x="180" y="465" width="20" height="20" as="geometry" />
        </mxCell>
        <mxCell id="b6-UkwE3wFQKwUGQj949-29" value="" style="whiteSpace=wrap;html=1;aspect=fixed;" vertex="1" parent="1">
          <mxGeometry x="127" y="467" width="15" height="15" as="geometry" />
        </mxCell>
        <mxCell id="b6-UkwE3wFQKwUGQj949-30" value="User login" style="text;html=1;align=center;verticalAlign=middle;whiteSpace=wrap;rounded=0;" vertex="1" parent="1">
          <mxGeometry x="5" y="184.5" width="60" height="30" as="geometry" />
        </mxCell>
        <mxCell id="b6-UkwE3wFQKwUGQj949-31" value="Student" style="text;html=1;align=center;verticalAlign=middle;whiteSpace=wrap;rounded=0;" vertex="1" parent="1">
          <mxGeometry x="6" y="301" width="60" height="30" as="geometry" />
        </mxCell>
        <mxCell id="b6-UkwE3wFQKwUGQj949-32" value="Teacher" style="text;html=1;align=center;verticalAlign=middle;whiteSpace=wrap;rounded=0;" vertex="1" parent="1">
          <mxGeometry x="8" y="442" width="60" height="30" as="geometry" />
        </mxCell>
        <mxCell id="b6-UkwE3wFQKwUGQj949-33" value="Handler" style="html=1;dropTarget=0;whiteSpace=wrap;" vertex="1" parent="1">
          <mxGeometry x="451" y="160" width="120" height="450" as="geometry" />
        </mxCell>
        <mxCell id="b6-UkwE3wFQKwUGQj949-34" value="" style="shape=module;jettyWidth=8;jettyHeight=4;" vertex="1" parent="b6-UkwE3wFQKwUGQj949-33">
          <mxGeometry x="1" width="20" height="20" relative="1" as="geometry">
            <mxPoint x="-27" y="7" as="offset" />
          </mxGeometry>
        </mxCell>
        <mxCell id="b6-UkwE3wFQKwUGQj949-35" value="" style="rounded=0;orthogonalLoop=1;jettySize=auto;html=1;endArrow=halfCircle;endFill=0;endSize=6;strokeWidth=1;sketch=0;exitX=1;exitY=0.5;exitDx=0;exitDy=0;" edge="1" parent="1" source="b6-UkwE3wFQKwUGQj949-40">
          <mxGeometry relative="1" as="geometry">
            <mxPoint x="359.3299999999999" y="217.5" as="sourcePoint" />
            <mxPoint x="416" y="218" as="targetPoint" />
          </mxGeometry>
        </mxCell>
        <mxCell id="b6-UkwE3wFQKwUGQj949-36" value="" style="rounded=0;orthogonalLoop=1;jettySize=auto;html=1;endArrow=oval;endFill=0;sketch=0;sourcePerimeterSpacing=0;targetPerimeterSpacing=0;endSize=10;exitX=0.004;exitY=0.133;exitDx=0;exitDy=0;exitPerimeter=0;" edge="1" parent="1" source="b6-UkwE3wFQKwUGQj949-33">
          <mxGeometry relative="1" as="geometry">
            <mxPoint x="446" y="219" as="sourcePoint" />
            <mxPoint x="415" y="218.5" as="targetPoint" />
          </mxGeometry>
        </mxCell>
        <mxCell id="b6-UkwE3wFQKwUGQj949-37" value="" style="rounded=0;orthogonalLoop=1;jettySize=auto;html=1;endArrow=halfCircle;endFill=0;endSize=6;strokeWidth=1;sketch=0;exitX=1;exitY=0.5;exitDx=0;exitDy=0;" edge="1" parent="1">
          <mxGeometry relative="1" as="geometry">
            <mxPoint x="359.3299999999999" y="333.5" as="sourcePoint" />
            <mxPoint x="416" y="334" as="targetPoint" />
          </mxGeometry>
        </mxCell>
        <mxCell id="b6-UkwE3wFQKwUGQj949-38" value="" style="rounded=0;orthogonalLoop=1;jettySize=auto;html=1;endArrow=oval;endFill=0;sketch=0;sourcePerimeterSpacing=0;targetPerimeterSpacing=0;endSize=10;exitX=0.014;exitY=0.547;exitDx=0;exitDy=0;exitPerimeter=0;" edge="1" parent="1">
          <mxGeometry relative="1" as="geometry">
            <mxPoint x="452.68000000000006" y="333.9799999999999" as="sourcePoint" />
            <mxPoint x="416" y="333.62" as="targetPoint" />
          </mxGeometry>
        </mxCell>
        <mxCell id="b6-UkwE3wFQKwUGQj949-39" value="" style="rounded=0;orthogonalLoop=1;jettySize=auto;html=1;endArrow=halfCircle;endFill=0;endSize=6;strokeWidth=1;sketch=0;exitX=1;exitY=0.5;exitDx=0;exitDy=0;" edge="1" parent="1" target="b6-UkwE3wFQKwUGQj949-40">
          <mxGeometry relative="1" as="geometry">
            <mxPoint x="359.3299999999999" y="217.5" as="sourcePoint" />
            <mxPoint x="416" y="218" as="targetPoint" />
          </mxGeometry>
        </mxCell>
        <mxCell id="b6-UkwE3wFQKwUGQj949-40" value="" style="ellipse;whiteSpace=wrap;html=1;align=center;aspect=fixed;fillColor=none;strokeColor=none;resizable=0;perimeter=centerPerimeter;rotatable=0;allowArrows=0;points=[];outlineConnect=1;" vertex="1" parent="1">
          <mxGeometry x="411" y="213.5" width="10" height="10" as="geometry" />
        </mxCell>
        <mxCell id="b6-UkwE3wFQKwUGQj949-41" value="" style="rounded=0;orthogonalLoop=1;jettySize=auto;html=1;endArrow=halfCircle;endFill=0;endSize=6;strokeWidth=1;sketch=0;exitX=1;exitY=0.5;exitDx=0;exitDy=0;" edge="1" parent="1">
          <mxGeometry relative="1" as="geometry">
            <mxPoint x="357.6699999999999" y="473.40999999999997" as="sourcePoint" />
            <mxPoint x="414.34" y="473.90999999999997" as="targetPoint" />
          </mxGeometry>
        </mxCell>
        <mxCell id="b6-UkwE3wFQKwUGQj949-42" value="" style="rounded=0;orthogonalLoop=1;jettySize=auto;html=1;endArrow=oval;endFill=0;sketch=0;sourcePerimeterSpacing=0;targetPerimeterSpacing=0;endSize=10;" edge="1" parent="1">
          <mxGeometry relative="1" as="geometry">
            <mxPoint x="450" y="474" as="sourcePoint" />
            <mxPoint x="415.34" y="473.53" as="targetPoint" />
          </mxGeometry>
        </mxCell>
        <mxCell id="b6-UkwE3wFQKwUGQj949-43" value="" style="rounded=0;orthogonalLoop=1;jettySize=auto;html=1;endArrow=halfCircle;endFill=0;endSize=6;strokeWidth=1;sketch=0;fontSize=12;curved=1;exitX=0.978;exitY=0.131;exitDx=0;exitDy=0;exitPerimeter=0;entryX=0.935;entryY=0.208;entryDx=0;entryDy=0;entryPerimeter=0;" edge="1" parent="1">
          <mxGeometry relative="1" as="geometry">
            <mxPoint x="570.26" y="209.77999999999997" as="sourcePoint" />
            <mxPoint x="613.7" y="209.84000000000003" as="targetPoint" />
          </mxGeometry>
        </mxCell>
        <mxCell id="b6-UkwE3wFQKwUGQj949-44" value="" style="ellipse;whiteSpace=wrap;html=1;align=center;aspect=fixed;fillColor=none;strokeColor=none;resizable=0;perimeter=centerPerimeter;rotatable=0;allowArrows=0;points=[];outlineConnect=1;" vertex="1" parent="1">
          <mxGeometry x="216" y="410" width="10" height="10" as="geometry" />
        </mxCell>
        <mxCell id="b6-UkwE3wFQKwUGQj949-45" value="" style="rounded=0;orthogonalLoop=1;jettySize=auto;html=1;endArrow=halfCircle;endFill=0;endSize=6;strokeWidth=1;sketch=0;fontSize=12;curved=1;exitX=0.978;exitY=0.131;exitDx=0;exitDy=0;exitPerimeter=0;entryX=0.935;entryY=0.208;entryDx=0;entryDy=0;entryPerimeter=0;" edge="1" parent="1">
          <mxGeometry relative="1" as="geometry">
            <mxPoint x="628" y="209.99999999999997" as="sourcePoint" />
            <mxPoint x="671.44" y="210.06000000000003" as="targetPoint" />
          </mxGeometry>
        </mxCell>
        <mxCell id="b6-UkwE3wFQKwUGQj949-46" value="" style="rounded=0;orthogonalLoop=1;jettySize=auto;html=1;endArrow=halfCircle;endFill=0;endSize=6;strokeWidth=1;sketch=0;fontSize=12;curved=1;exitX=0.978;exitY=0.131;exitDx=0;exitDy=0;exitPerimeter=0;entryX=0.935;entryY=0.208;entryDx=0;entryDy=0;entryPerimeter=0;" edge="1" parent="1">
          <mxGeometry relative="1" as="geometry">
            <mxPoint x="572" y="331.66999999999996" as="sourcePoint" />
            <mxPoint x="615.44" y="331.73" as="targetPoint" />
          </mxGeometry>
        </mxCell>
        <mxCell id="b6-UkwE3wFQKwUGQj949-47" value="" style="rounded=0;orthogonalLoop=1;jettySize=auto;html=1;endArrow=halfCircle;endFill=0;endSize=6;strokeWidth=1;sketch=0;fontSize=12;curved=1;exitX=0.978;exitY=0.131;exitDx=0;exitDy=0;exitPerimeter=0;entryX=0.935;entryY=0.208;entryDx=0;entryDy=0;entryPerimeter=0;" edge="1" parent="1">
          <mxGeometry relative="1" as="geometry">
            <mxPoint x="627" y="330.16999999999996" as="sourcePoint" />
            <mxPoint x="670.44" y="330.23" as="targetPoint" />
          </mxGeometry>
        </mxCell>
        <mxCell id="b6-UkwE3wFQKwUGQj949-48" value="" style="rounded=0;orthogonalLoop=1;jettySize=auto;html=1;endArrow=halfCircle;endFill=0;endSize=6;strokeWidth=1;sketch=0;fontSize=12;curved=1;exitX=0.978;exitY=0.131;exitDx=0;exitDy=0;exitPerimeter=0;entryX=0.935;entryY=0.208;entryDx=0;entryDy=0;entryPerimeter=0;" edge="1" parent="1">
          <mxGeometry relative="1" as="geometry">
            <mxPoint x="572" y="474.66999999999996" as="sourcePoint" />
            <mxPoint x="615.44" y="474.73" as="targetPoint" />
          </mxGeometry>
        </mxCell>
        <mxCell id="b6-UkwE3wFQKwUGQj949-49" value="" style="html=1;dropTarget=0;whiteSpace=wrap;" vertex="1" parent="1">
          <mxGeometry x="731" y="110" width="429" height="550" as="geometry" />
        </mxCell>
        <mxCell id="b6-UkwE3wFQKwUGQj949-50" value="" style="shape=module;jettyWidth=8;jettyHeight=4;" vertex="1" parent="b6-UkwE3wFQKwUGQj949-49">
          <mxGeometry x="1" width="20" height="20" relative="1" as="geometry">
            <mxPoint x="-42" y="7" as="offset" />
          </mxGeometry>
        </mxCell>
        <mxCell id="b6-UkwE3wFQKwUGQj949-51" value="&amp;lt;&amp;lt;subsystem&amp;gt;&amp;gt; Back-end" style="text;align=center;fontStyle=1;verticalAlign=middle;spacingLeft=3;spacingRight=3;strokeColor=none;rotatable=0;points=[[0,0.5],[1,0.5]];portConstraint=eastwest;html=1;" vertex="1" parent="1">
          <mxGeometry x="901" y="124" width="80" height="26" as="geometry" />
        </mxCell>
        <mxCell id="b6-UkwE3wFQKwUGQj949-52" value="" style="ellipse;whiteSpace=wrap;html=1;align=center;aspect=fixed;fillColor=none;strokeColor=none;resizable=0;perimeter=centerPerimeter;rotatable=0;allowArrows=0;points=[];outlineConnect=1;" vertex="1" parent="1">
          <mxGeometry x="949.33" y="193.5" width="10" height="10" as="geometry" />
        </mxCell>
        <mxCell id="b6-UkwE3wFQKwUGQj949-53" value="" style="html=1;dropTarget=0;whiteSpace=wrap;" vertex="1" parent="1">
          <mxGeometry x="954" y="180" width="133.33" height="50" as="geometry" />
        </mxCell>
        <mxCell id="b6-UkwE3wFQKwUGQj949-54" value="" style="shape=module;jettyWidth=8;jettyHeight=4;" vertex="1" parent="b6-UkwE3wFQKwUGQj949-53">
          <mxGeometry x="1" width="20" height="20" relative="1" as="geometry">
            <mxPoint x="-27" y="7" as="offset" />
          </mxGeometry>
        </mxCell>
        <mxCell id="b6-UkwE3wFQKwUGQj949-55" value="" style="rounded=0;orthogonalLoop=1;jettySize=auto;html=1;endArrow=halfCircle;endFill=0;endSize=6;strokeWidth=1;sketch=0;exitX=1;exitY=0.5;exitDx=0;exitDy=0;" edge="1" parent="1" source="b6-UkwE3wFQKwUGQj949-103">
          <mxGeometry relative="1" as="geometry">
            <mxPoint x="997" y="365" as="sourcePoint" />
            <mxPoint x="920.3299999999999" y="205" as="targetPoint" />
          </mxGeometry>
        </mxCell>
        <mxCell id="b6-UkwE3wFQKwUGQj949-56" value="" style="rounded=0;orthogonalLoop=1;jettySize=auto;html=1;endArrow=oval;endFill=0;sketch=0;sourcePerimeterSpacing=0;targetPerimeterSpacing=0;endSize=10;exitX=0;exitY=0.5;exitDx=0;exitDy=0;" edge="1" parent="1" source="b6-UkwE3wFQKwUGQj949-53">
          <mxGeometry relative="1" as="geometry">
            <mxPoint x="957" y="365" as="sourcePoint" />
            <mxPoint x="920.3299999999999" y="205" as="targetPoint" />
          </mxGeometry>
        </mxCell>
        <mxCell id="b6-UkwE3wFQKwUGQj949-57" value="" style="ellipse;whiteSpace=wrap;html=1;align=center;aspect=fixed;fillColor=none;strokeColor=none;resizable=0;perimeter=centerPerimeter;rotatable=0;allowArrows=0;points=[];outlineConnect=1;" vertex="1" parent="1">
          <mxGeometry x="949.33" y="200" width="10" height="10" as="geometry" />
        </mxCell>
        <mxCell id="b6-UkwE3wFQKwUGQj949-58" value="" style="rounded=0;orthogonalLoop=1;jettySize=auto;html=1;endArrow=halfCircle;endFill=0;endSize=6;strokeWidth=1;sketch=0;exitX=0.863;exitY=0.605;exitDx=0;exitDy=0;exitPerimeter=0;" edge="1" parent="1">
          <mxGeometry relative="1" as="geometry">
            <mxPoint x="680" y="208.5" as="sourcePoint" />
            <mxPoint x="680" y="208.5" as="targetPoint" />
          </mxGeometry>
        </mxCell>
        <mxCell id="b6-UkwE3wFQKwUGQj949-59" value="" style="rounded=0;orthogonalLoop=1;jettySize=auto;html=1;endArrow=oval;endFill=0;sketch=0;sourcePerimeterSpacing=0;targetPerimeterSpacing=0;endSize=10;exitX=0.005;exitY=0.628;exitDx=0;exitDy=0;exitPerimeter=0;" edge="1" parent="1">
          <mxGeometry relative="1" as="geometry">
            <mxPoint x="799.6666500000001" y="211.39999999999998" as="sourcePoint" />
            <mxPoint x="708" y="210" as="targetPoint" />
          </mxGeometry>
        </mxCell>
        <mxCell id="b6-UkwE3wFQKwUGQj949-60" value="" style="ellipse;whiteSpace=wrap;html=1;align=center;aspect=fixed;fillColor=none;strokeColor=none;resizable=0;perimeter=centerPerimeter;rotatable=0;allowArrows=0;points=[];outlineConnect=1;" vertex="1" parent="1">
          <mxGeometry x="680" y="203.5" width="10" height="10" as="geometry" />
        </mxCell>
        <mxCell id="b6-UkwE3wFQKwUGQj949-61" value="" style="rounded=0;orthogonalLoop=1;jettySize=auto;html=1;endArrow=oval;endFill=0;sketch=0;sourcePerimeterSpacing=0;targetPerimeterSpacing=0;endSize=10;exitX=0;exitY=0.5;exitDx=0;exitDy=0;" edge="1" parent="1">
          <mxGeometry relative="1" as="geometry">
            <mxPoint x="789.9999999999998" y="330" as="sourcePoint" />
            <mxPoint x="710" y="330" as="targetPoint" />
          </mxGeometry>
        </mxCell>
        <mxCell id="b6-UkwE3wFQKwUGQj949-62" value="" style="html=1;dropTarget=0;whiteSpace=wrap;" vertex="1" parent="1">
          <mxGeometry x="949.33" y="305" width="133.33" height="50" as="geometry" />
        </mxCell>
        <mxCell id="b6-UkwE3wFQKwUGQj949-63" value="" style="shape=module;jettyWidth=8;jettyHeight=4;" vertex="1" parent="b6-UkwE3wFQKwUGQj949-62">
          <mxGeometry x="1" width="20" height="20" relative="1" as="geometry">
            <mxPoint x="-27" y="7" as="offset" />
          </mxGeometry>
        </mxCell>
        <mxCell id="b6-UkwE3wFQKwUGQj949-64" value="" style="html=1;dropTarget=0;whiteSpace=wrap;" vertex="1" parent="1">
          <mxGeometry x="950.33" y="416" width="133.33" height="50" as="geometry" />
        </mxCell>
        <mxCell id="b6-UkwE3wFQKwUGQj949-65" value="" style="shape=module;jettyWidth=8;jettyHeight=4;" vertex="1" parent="b6-UkwE3wFQKwUGQj949-64">
          <mxGeometry x="1" width="20" height="20" relative="1" as="geometry">
            <mxPoint x="-27" y="7" as="offset" />
          </mxGeometry>
        </mxCell>
        <mxCell id="b6-UkwE3wFQKwUGQj949-66" value="" style="shape=providedRequiredInterface;html=1;verticalLabelPosition=bottom;sketch=0;rotation=90;" vertex="1" parent="1">
          <mxGeometry x="1001" y="375" width="20" height="20" as="geometry" />
        </mxCell>
        <mxCell id="b6-UkwE3wFQKwUGQj949-67" value="" style="endArrow=none;html=1;rounded=0;entryX=0.465;entryY=1.007;entryDx=0;entryDy=0;exitX=0;exitY=0.5;exitDx=0;exitDy=0;exitPerimeter=0;entryPerimeter=0;" edge="1" parent="1" source="b6-UkwE3wFQKwUGQj949-66" target="b6-UkwE3wFQKwUGQj949-62">
          <mxGeometry width="50" height="50" relative="1" as="geometry">
            <mxPoint x="881" y="400" as="sourcePoint" />
            <mxPoint x="931" y="350" as="targetPoint" />
          </mxGeometry>
        </mxCell>
        <mxCell id="b6-UkwE3wFQKwUGQj949-68" value="" style="endArrow=none;html=1;rounded=0;entryX=1;entryY=0.5;entryDx=0;entryDy=0;exitX=0.459;exitY=-0.003;exitDx=0;exitDy=0;exitPerimeter=0;entryPerimeter=0;" edge="1" parent="1" source="b6-UkwE3wFQKwUGQj949-64" target="b6-UkwE3wFQKwUGQj949-66">
          <mxGeometry width="50" height="50" relative="1" as="geometry">
            <mxPoint x="1021" y="385" as="sourcePoint" />
            <mxPoint x="1022" y="365" as="targetPoint" />
          </mxGeometry>
        </mxCell>
        <mxCell id="b6-UkwE3wFQKwUGQj949-69" value="" style="shape=providedRequiredInterface;html=1;verticalLabelPosition=bottom;sketch=0;rotation=89;" vertex="1" parent="1">
          <mxGeometry x="1006" y="261" width="20" height="20" as="geometry" />
        </mxCell>
        <mxCell id="b6-UkwE3wFQKwUGQj949-70" value="" style="endArrow=none;html=1;rounded=0;entryX=0;entryY=0.5;entryDx=0;entryDy=0;entryPerimeter=0;exitX=0.349;exitY=0.97;exitDx=0;exitDy=0;exitPerimeter=0;" edge="1" parent="1" target="b6-UkwE3wFQKwUGQj949-69">
          <mxGeometry width="50" height="50" relative="1" as="geometry">
            <mxPoint x="1015.53217" y="229.5" as="sourcePoint" />
            <mxPoint x="846" y="321" as="targetPoint" />
          </mxGeometry>
        </mxCell>
        <mxCell id="b6-UkwE3wFQKwUGQj949-71" value="" style="endArrow=none;html=1;rounded=0;entryX=1;entryY=0.5;entryDx=0;entryDy=0;entryPerimeter=0;exitX=0.5;exitY=0;exitDx=0;exitDy=0;" edge="1" parent="1" source="b6-UkwE3wFQKwUGQj949-62" target="b6-UkwE3wFQKwUGQj949-69">
          <mxGeometry width="50" height="50" relative="1" as="geometry">
            <mxPoint x="1025.53217" y="239.5" as="sourcePoint" />
            <mxPoint x="1026" y="271" as="targetPoint" />
          </mxGeometry>
        </mxCell>
        <mxCell id="b6-UkwE3wFQKwUGQj949-72" value="&lt;span style=&quot;font-size: 10px;&quot;&gt;Student&lt;/span&gt;&lt;div&gt;&lt;span style=&quot;font-size: 10px;&quot;&gt;&amp;nbsp;maneges&lt;/span&gt;&lt;/div&gt;" style="text;align=center;fontStyle=1;verticalAlign=middle;spacingLeft=3;spacingRight=3;strokeColor=none;rotatable=0;points=[[0,0.5],[1,0.5]];portConstraint=eastwest;html=1;" vertex="1" parent="1">
          <mxGeometry x="660" y="280" width="60" height="40" as="geometry" />
        </mxCell>
        <mxCell id="b6-UkwE3wFQKwUGQj949-73" value="Student" style="html=1;dropTarget=0;whiteSpace=wrap;" vertex="1" parent="1">
          <mxGeometry x="750" y="305" width="133.33" height="50" as="geometry" />
        </mxCell>
        <mxCell id="b6-UkwE3wFQKwUGQj949-74" value="" style="shape=module;jettyWidth=8;jettyHeight=4;" vertex="1" parent="b6-UkwE3wFQKwUGQj949-73">
          <mxGeometry x="1" width="20" height="20" relative="1" as="geometry">
            <mxPoint x="-27" y="7" as="offset" />
          </mxGeometry>
        </mxCell>
        <mxCell id="b6-UkwE3wFQKwUGQj949-77" value="" style="shape=providedRequiredInterface;html=1;verticalLabelPosition=bottom;sketch=0;rotation=-180;" vertex="1" parent="1">
          <mxGeometry x="900.33" y="316" width="20" height="20" as="geometry" />
        </mxCell>
        <mxCell id="b6-UkwE3wFQKwUGQj949-78" value="" style="endArrow=none;html=1;rounded=0;entryX=0.991;entryY=0.431;entryDx=0;entryDy=0;entryPerimeter=0;exitX=1;exitY=0.5;exitDx=0;exitDy=0;exitPerimeter=0;" edge="1" parent="1" source="b6-UkwE3wFQKwUGQj949-77" target="b6-UkwE3wFQKwUGQj949-73">
          <mxGeometry width="50" height="50" relative="1" as="geometry">
            <mxPoint x="910" y="340" as="sourcePoint" />
            <mxPoint x="960" y="290" as="targetPoint" />
          </mxGeometry>
        </mxCell>
        <mxCell id="b6-UkwE3wFQKwUGQj949-79" value="" style="endArrow=none;html=1;rounded=0;entryX=0;entryY=0.5;entryDx=0;entryDy=0;entryPerimeter=0;exitX=0.009;exitY=0.417;exitDx=0;exitDy=0;exitPerimeter=0;" edge="1" parent="1" source="b6-UkwE3wFQKwUGQj949-62" target="b6-UkwE3wFQKwUGQj949-77">
          <mxGeometry width="50" height="50" relative="1" as="geometry">
            <mxPoint x="910" y="336" as="sourcePoint" />
            <mxPoint x="892" y="337" as="targetPoint" />
          </mxGeometry>
        </mxCell>
        <mxCell id="b6-UkwE3wFQKwUGQj949-80" value="Teacher" style="html=1;dropTarget=0;whiteSpace=wrap;" vertex="1" parent="1">
          <mxGeometry x="750" y="388" width="133.33" height="50" as="geometry" />
        </mxCell>
        <mxCell id="b6-UkwE3wFQKwUGQj949-81" value="" style="shape=module;jettyWidth=8;jettyHeight=4;" vertex="1" parent="b6-UkwE3wFQKwUGQj949-80">
          <mxGeometry x="1" width="20" height="20" relative="1" as="geometry">
            <mxPoint x="-27" y="7" as="offset" />
          </mxGeometry>
        </mxCell>
        <mxCell id="b6-UkwE3wFQKwUGQj949-83" value="" style="shape=providedRequiredInterface;html=1;verticalLabelPosition=bottom;sketch=0;rotation=-90;" vertex="1" parent="1">
          <mxGeometry x="806.67" y="365" width="20" height="20" as="geometry" />
        </mxCell>
        <mxCell id="b6-UkwE3wFQKwUGQj949-84" value="" style="endArrow=none;html=1;rounded=0;entryX=0.5;entryY=1;entryDx=0;entryDy=0;exitX=1;exitY=0.5;exitDx=0;exitDy=0;exitPerimeter=0;" edge="1" parent="1">
          <mxGeometry width="50" height="50" relative="1" as="geometry">
            <mxPoint x="816.6700000000001" y="365" as="sourcePoint" />
            <mxPoint x="816.665" y="355" as="targetPoint" />
          </mxGeometry>
        </mxCell>
        <mxCell id="b6-UkwE3wFQKwUGQj949-85" value="" style="endArrow=none;html=1;rounded=0;exitX=0;exitY=0.5;exitDx=0;exitDy=0;exitPerimeter=0;entryX=0.5;entryY=0;entryDx=0;entryDy=0;" edge="1" parent="1" source="b6-UkwE3wFQKwUGQj949-83" target="b6-UkwE3wFQKwUGQj949-80">
          <mxGeometry width="50" height="50" relative="1" as="geometry">
            <mxPoint x="910" y="410" as="sourcePoint" />
            <mxPoint x="960" y="360" as="targetPoint" />
          </mxGeometry>
        </mxCell>
        <mxCell id="b6-UkwE3wFQKwUGQj949-86" value="Parther&lt;div&gt;&amp;nbsp;Company&lt;/div&gt;" style="html=1;dropTarget=0;whiteSpace=wrap;" vertex="1" parent="1">
          <mxGeometry x="750" y="535.5" width="133.33" height="50" as="geometry" />
        </mxCell>
        <mxCell id="b6-UkwE3wFQKwUGQj949-87" value="" style="shape=module;jettyWidth=8;jettyHeight=4;" vertex="1" parent="b6-UkwE3wFQKwUGQj949-86">
          <mxGeometry x="1" width="20" height="20" relative="1" as="geometry">
            <mxPoint x="-27" y="7" as="offset" />
          </mxGeometry>
        </mxCell>
        <mxCell id="b6-UkwE3wFQKwUGQj949-88" value="" style="shape=providedRequiredInterface;html=1;verticalLabelPosition=bottom;sketch=0;rotation=90;" vertex="1" parent="1">
          <mxGeometry x="806.67" y="480" width="20" height="20" as="geometry" />
        </mxCell>
        <mxCell id="b6-UkwE3wFQKwUGQj949-89" value="" style="endArrow=none;html=1;rounded=0;entryX=0;entryY=0.5;entryDx=0;entryDy=0;entryPerimeter=0;exitX=0.5;exitY=1;exitDx=0;exitDy=0;" edge="1" parent="1" source="b6-UkwE3wFQKwUGQj949-80" target="b6-UkwE3wFQKwUGQj949-88">
          <mxGeometry width="50" height="50" relative="1" as="geometry">
            <mxPoint x="910" y="480" as="sourcePoint" />
            <mxPoint x="960" y="430" as="targetPoint" />
          </mxGeometry>
        </mxCell>
        <mxCell id="b6-UkwE3wFQKwUGQj949-90" value="" style="endArrow=none;html=1;rounded=0;exitX=1;exitY=0.5;exitDx=0;exitDy=0;exitPerimeter=0;entryX=0.5;entryY=0;entryDx=0;entryDy=0;" edge="1" parent="1" source="b6-UkwE3wFQKwUGQj949-88" target="b6-UkwE3wFQKwUGQj949-86">
          <mxGeometry width="50" height="50" relative="1" as="geometry">
            <mxPoint x="910" y="480" as="sourcePoint" />
            <mxPoint x="960" y="430" as="targetPoint" />
          </mxGeometry>
        </mxCell>
        <mxCell id="b6-UkwE3wFQKwUGQj949-91" value="" style="shape=providedRequiredInterface;html=1;verticalLabelPosition=bottom;sketch=0;" vertex="1" parent="1">
          <mxGeometry x="934" y="550" width="20" height="20" as="geometry" />
        </mxCell>
        <mxCell id="b6-UkwE3wFQKwUGQj949-92" value="" style="endArrow=none;html=1;rounded=0;exitX=1;exitY=0.5;exitDx=0;exitDy=0;exitPerimeter=0;entryX=1;entryY=0.5;entryDx=0;entryDy=0;" edge="1" parent="1" source="b6-UkwE3wFQKwUGQj949-91" target="b6-UkwE3wFQKwUGQj949-53">
          <mxGeometry width="50" height="50" relative="1" as="geometry">
            <mxPoint x="940" y="580" as="sourcePoint" />
            <mxPoint x="1087.33" y="225" as="targetPoint" />
            <Array as="points">
              <mxPoint x="1130" y="560" />
              <mxPoint x="1130" y="205" />
            </Array>
          </mxGeometry>
        </mxCell>
        <mxCell id="b6-UkwE3wFQKwUGQj949-93" value="" style="endArrow=none;html=1;rounded=0;entryX=0;entryY=0.5;entryDx=0;entryDy=0;entryPerimeter=0;exitX=1;exitY=0.5;exitDx=0;exitDy=0;" edge="1" parent="1" source="b6-UkwE3wFQKwUGQj949-86" target="b6-UkwE3wFQKwUGQj949-91">
          <mxGeometry width="50" height="50" relative="1" as="geometry">
            <mxPoint x="860" y="490" as="sourcePoint" />
            <mxPoint x="910" y="440" as="targetPoint" />
          </mxGeometry>
        </mxCell>
        <mxCell id="b6-UkwE3wFQKwUGQj949-94" value="" style="shape=providedRequiredInterface;html=1;verticalLabelPosition=bottom;sketch=0;" vertex="1" parent="1">
          <mxGeometry x="914" y="431" width="20" height="20" as="geometry" />
        </mxCell>
        <mxCell id="b6-UkwE3wFQKwUGQj949-95" value="" style="endArrow=none;html=1;rounded=0;exitX=0;exitY=0.5;exitDx=0;exitDy=0;exitPerimeter=0;entryX=1;entryY=1;entryDx=0;entryDy=0;" edge="1" parent="1" source="b6-UkwE3wFQKwUGQj949-94" target="b6-UkwE3wFQKwUGQj949-73">
          <mxGeometry width="50" height="50" relative="1" as="geometry">
            <mxPoint x="760" y="400" as="sourcePoint" />
            <mxPoint x="810" y="350" as="targetPoint" />
            <Array as="points">
              <mxPoint x="900" y="441" />
              <mxPoint x="900" y="355" />
            </Array>
          </mxGeometry>
        </mxCell>
        <mxCell id="b6-UkwE3wFQKwUGQj949-96" value="" style="endArrow=none;html=1;rounded=0;entryX=1;entryY=0.5;entryDx=0;entryDy=0;entryPerimeter=0;exitX=0;exitY=0.5;exitDx=0;exitDy=0;" edge="1" parent="1" source="b6-UkwE3wFQKwUGQj949-64" target="b6-UkwE3wFQKwUGQj949-94">
          <mxGeometry width="50" height="50" relative="1" as="geometry">
            <mxPoint x="760" y="400" as="sourcePoint" />
            <mxPoint x="810" y="350" as="targetPoint" />
          </mxGeometry>
        </mxCell>
        <mxCell id="b6-UkwE3wFQKwUGQj949-99" value="" style="endArrow=none;html=1;rounded=0;entryX=1;entryY=0.5;entryDx=0;entryDy=0;entryPerimeter=0;" edge="1" parent="1">
          <mxGeometry width="50" height="50" relative="1" as="geometry">
            <mxPoint x="624" y="475" as="sourcePoint" />
            <mxPoint x="654.0000000000001" y="475" as="targetPoint" />
          </mxGeometry>
        </mxCell>
        <mxCell id="b6-UkwE3wFQKwUGQj949-100" value="" style="shape=requiredInterface;html=1;verticalLabelPosition=bottom;sketch=0;rotation=-180;" vertex="1" parent="1">
          <mxGeometry x="654" y="465" width="10" height="20" as="geometry" />
        </mxCell>
        <mxCell id="b6-UkwE3wFQKwUGQj949-101" value="" style="ellipse;whiteSpace=wrap;html=1;aspect=fixed;" vertex="1" parent="1">
          <mxGeometry x="709" y="469.5" width="11.5" height="11.5" as="geometry" />
        </mxCell>
        <mxCell id="b6-UkwE3wFQKwUGQj949-102" value="" style="endArrow=none;html=1;rounded=0;entryX=0.5;entryY=1;entryDx=0;entryDy=0;" edge="1" parent="1" target="b6-UkwE3wFQKwUGQj949-64">
          <mxGeometry width="50" height="50" relative="1" as="geometry">
            <mxPoint x="720" y="474" as="sourcePoint" />
            <mxPoint x="756" y="474" as="targetPoint" />
            <Array as="points">
              <mxPoint x="740" y="474" />
              <mxPoint x="740" y="610" />
              <mxPoint x="1017" y="610" />
            </Array>
          </mxGeometry>
        </mxCell>
        <mxCell id="b6-UkwE3wFQKwUGQj949-103" value="Users" style="html=1;dropTarget=0;whiteSpace=wrap;" vertex="1" parent="1">
          <mxGeometry x="767" y="180" width="133.33" height="50" as="geometry" />
        </mxCell>
        <mxCell id="b6-UkwE3wFQKwUGQj949-104" value="" style="shape=module;jettyWidth=8;jettyHeight=4;" vertex="1" parent="b6-UkwE3wFQKwUGQj949-103">
          <mxGeometry x="1" width="20" height="20" relative="1" as="geometry">
            <mxPoint x="-27" y="7" as="offset" />
          </mxGeometry>
        </mxCell>
        <mxCell id="b6-UkwE3wFQKwUGQj949-105" value="" style="endArrow=open;endSize=12;dashed=1;html=1;rounded=0;entryX=0;entryY=0.5;entryDx=0;entryDy=0;exitX=0.75;exitY=0.423;exitDx=0;exitDy=0;exitPerimeter=0;" edge="1" parent="1" source="b6-UkwE3wFQKwUGQj949-100" target="b6-UkwE3wFQKwUGQj949-101">
          <mxGeometry width="160" relative="1" as="geometry">
            <mxPoint x="607" y="474.7" as="sourcePoint" />
            <mxPoint x="767" y="474.7" as="targetPoint" />
          </mxGeometry>
        </mxCell>
        <mxCell id="b6-UkwE3wFQKwUGQj949-106" value="" style="endArrow=open;endSize=12;dashed=1;html=1;rounded=0;" edge="1" parent="1">
          <mxGeometry width="160" relative="1" as="geometry">
            <mxPoint x="655" y="330" as="sourcePoint" />
            <mxPoint x="705" y="330" as="targetPoint" />
          </mxGeometry>
        </mxCell>
        <mxCell id="b6-UkwE3wFQKwUGQj949-107" value="" style="endArrow=open;endSize=12;dashed=1;html=1;rounded=0;" edge="1" parent="1">
          <mxGeometry width="160" relative="1" as="geometry">
            <mxPoint x="660" y="210" as="sourcePoint" />
            <mxPoint x="704" y="210" as="targetPoint" />
          </mxGeometry>
        </mxCell>
        <mxCell id="b6-UkwE3wFQKwUGQj949-108" value="&lt;font style=&quot;font-size: 10px;&quot;&gt;Users&amp;nbsp;&lt;/font&gt;&lt;div&gt;&lt;font style=&quot;font-size: 10px;&quot;&gt;maneges&lt;/font&gt;&lt;/div&gt;" style="text;align=center;fontStyle=1;verticalAlign=middle;spacingLeft=3;spacingRight=3;strokeColor=none;rotatable=0;points=[[0,0.5],[1,0.5]];portConstraint=eastwest;html=1;" vertex="1" parent="1">
          <mxGeometry x="664" y="163.5" width="60" height="40" as="geometry" />
        </mxCell>
        <mxCell id="b6-UkwE3wFQKwUGQj949-109" value="" style="shape=providedRequiredInterface;html=1;verticalLabelPosition=bottom;sketch=0;rotation=-90;" vertex="1" parent="1">
          <mxGeometry x="823.67" y="255" width="20" height="20" as="geometry" />
        </mxCell>
        <mxCell id="b6-UkwE3wFQKwUGQj949-110" value="" style="endArrow=none;html=1;rounded=0;entryX=0.5;entryY=1;entryDx=0;entryDy=0;exitX=1;exitY=0.5;exitDx=0;exitDy=0;exitPerimeter=0;" edge="1" parent="1" source="b6-UkwE3wFQKwUGQj949-109" target="b6-UkwE3wFQKwUGQj949-103">
          <mxGeometry width="50" height="50" relative="1" as="geometry">
            <mxPoint x="850" y="270" as="sourcePoint" />
            <mxPoint x="900" y="220" as="targetPoint" />
          </mxGeometry>
        </mxCell>
        <mxCell id="b6-UkwE3wFQKwUGQj949-111" value="" style="endArrow=none;html=1;rounded=0;exitX=0;exitY=0.5;exitDx=0;exitDy=0;exitPerimeter=0;entryX=0.626;entryY=-0.032;entryDx=0;entryDy=0;entryPerimeter=0;" edge="1" parent="1" source="b6-UkwE3wFQKwUGQj949-109" target="b6-UkwE3wFQKwUGQj949-73">
          <mxGeometry width="50" height="50" relative="1" as="geometry">
            <mxPoint x="850" y="270" as="sourcePoint" />
            <mxPoint x="900" y="220" as="targetPoint" />
          </mxGeometry>
        </mxCell>
        <mxCell id="b6-UkwE3wFQKwUGQj949-113" value="&lt;span style=&quot;font-size: 10px;&quot;&gt;Teacher&lt;/span&gt;&lt;div&gt;&lt;span style=&quot;font-size: 10px;&quot;&gt;maneges&lt;/span&gt;&lt;/div&gt;" style="text;align=center;fontStyle=1;verticalAlign=middle;spacingLeft=3;spacingRight=3;strokeColor=none;rotatable=0;points=[[0,0.5],[1,0.5]];portConstraint=eastwest;html=1;" vertex="1" parent="1">
          <mxGeometry x="660" y="423" width="60" height="40" as="geometry" />
        </mxCell>
        <mxCell id="b6-UkwE3wFQKwUGQj949-114" value="Parther Company" style="text;html=1;align=center;verticalAlign=middle;whiteSpace=wrap;rounded=0;" vertex="1" parent="1">
          <mxGeometry x="6" y="517" width="60" height="30" as="geometry" />
        </mxCell>
        <mxCell id="b6-UkwE3wFQKwUGQj949-115" value="Parther Company&amp;nbsp; &amp;nbsp; &amp;nbsp;&amp;nbsp;" style="html=1;dropTarget=0;whiteSpace=wrap;" vertex="1" parent="1">
          <mxGeometry x="226" y="535" width="133.33" height="50" as="geometry" />
        </mxCell>
        <mxCell id="b6-UkwE3wFQKwUGQj949-116" value="" style="shape=module;jettyWidth=8;jettyHeight=4;" vertex="1" parent="b6-UkwE3wFQKwUGQj949-115">
          <mxGeometry x="1" width="20" height="20" relative="1" as="geometry">
            <mxPoint x="-27" y="7" as="offset" />
          </mxGeometry>
        </mxCell>
        <mxCell id="b6-UkwE3wFQKwUGQj949-117" value="" style="ellipse;whiteSpace=wrap;html=1;aspect=fixed;" vertex="1" parent="1">
          <mxGeometry x="25" y="550" width="20" height="20" as="geometry" />
        </mxCell>
        <mxCell id="b6-UkwE3wFQKwUGQj949-118" value="" style="endArrow=none;html=1;rounded=0;exitX=1;exitY=0.5;exitDx=0;exitDy=0;" edge="1" parent="1" source="b6-UkwE3wFQKwUGQj949-117" target="b6-UkwE3wFQKwUGQj949-119">
          <mxGeometry width="50" height="50" relative="1" as="geometry">
            <mxPoint x="45" y="560" as="sourcePoint" />
            <mxPoint x="248" y="559" as="targetPoint" />
          </mxGeometry>
        </mxCell>
        <mxCell id="b6-UkwE3wFQKwUGQj949-119" value="" style="ellipse;whiteSpace=wrap;html=1;aspect=fixed;" vertex="1" parent="1">
          <mxGeometry x="180" y="550" width="20" height="20" as="geometry" />
        </mxCell>
        <mxCell id="b6-UkwE3wFQKwUGQj949-120" value="" style="whiteSpace=wrap;html=1;aspect=fixed;" vertex="1" parent="1">
          <mxGeometry x="127" y="552" width="15" height="15" as="geometry" />
        </mxCell>
        <mxCell id="b6-UkwE3wFQKwUGQj949-121" value="" style="endArrow=none;html=1;rounded=0;exitX=1;exitY=0.5;exitDx=0;exitDy=0;" edge="1" parent="1" target="b6-UkwE3wFQKwUGQj949-122">
          <mxGeometry width="50" height="50" relative="1" as="geometry">
            <mxPoint x="199" y="560" as="sourcePoint" />
            <mxPoint x="174" y="560" as="targetPoint" />
          </mxGeometry>
        </mxCell>
        <mxCell id="b6-UkwE3wFQKwUGQj949-122" value="" style="whiteSpace=wrap;html=1;aspect=fixed;" vertex="1" parent="1">
          <mxGeometry x="218" y="553" width="15" height="15" as="geometry" />
        </mxCell>
        <mxCell id="b6-UkwE3wFQKwUGQj949-125" value="Institution&lt;div&gt;Educational&lt;/div&gt;" style="html=1;dropTarget=0;whiteSpace=wrap;" vertex="1" parent="1">
          <mxGeometry x="226" y="383" width="133.33" height="50" as="geometry" />
        </mxCell>
        <mxCell id="b6-UkwE3wFQKwUGQj949-126" value="" style="shape=module;jettyWidth=8;jettyHeight=4;" vertex="1" parent="b6-UkwE3wFQKwUGQj949-125">
          <mxGeometry x="1" width="20" height="20" relative="1" as="geometry">
            <mxPoint x="-27" y="7" as="offset" />
          </mxGeometry>
        </mxCell>
        <mxCell id="b6-UkwE3wFQKwUGQj949-127" value="" style="endArrow=none;html=1;rounded=0;exitX=1;exitY=0.5;exitDx=0;exitDy=0;" edge="1" parent="1" source="b6-UkwE3wFQKwUGQj949-129" target="b6-UkwE3wFQKwUGQj949-128">
          <mxGeometry width="50" height="50" relative="1" as="geometry">
            <mxPoint x="45" y="408" as="sourcePoint" />
            <mxPoint x="175" y="408" as="targetPoint" />
          </mxGeometry>
        </mxCell>
        <mxCell id="b6-UkwE3wFQKwUGQj949-128" value="" style="whiteSpace=wrap;html=1;aspect=fixed;" vertex="1" parent="1">
          <mxGeometry x="219" y="399" width="15" height="15" as="geometry" />
        </mxCell>
        <mxCell id="b6-UkwE3wFQKwUGQj949-129" value="" style="ellipse;whiteSpace=wrap;html=1;aspect=fixed;" vertex="1" parent="1">
          <mxGeometry x="180" y="398" width="20" height="20" as="geometry" />
        </mxCell>
        <mxCell id="b6-UkwE3wFQKwUGQj949-131" value="" style="ellipse;whiteSpace=wrap;html=1;aspect=fixed;" vertex="1" parent="1">
          <mxGeometry x="26" y="397" width="20" height="20" as="geometry" />
        </mxCell>
        <mxCell id="b6-UkwE3wFQKwUGQj949-132" value="" style="endArrow=none;html=1;rounded=0;exitX=1;exitY=0.5;exitDx=0;exitDy=0;" edge="1" parent="1" source="b6-UkwE3wFQKwUGQj949-131">
          <mxGeometry width="50" height="50" relative="1" as="geometry">
            <mxPoint x="46" y="407" as="sourcePoint" />
            <mxPoint x="181" y="407" as="targetPoint" />
          </mxGeometry>
        </mxCell>
        <mxCell id="b6-UkwE3wFQKwUGQj949-130" value="" style="whiteSpace=wrap;html=1;aspect=fixed;" vertex="1" parent="1">
          <mxGeometry x="127" y="400" width="15" height="15" as="geometry" />
        </mxCell>
        <mxCell id="b6-UkwE3wFQKwUGQj949-133" value="" style="rounded=0;orthogonalLoop=1;jettySize=auto;html=1;endArrow=halfCircle;endFill=0;endSize=6;strokeWidth=1;sketch=0;exitX=1;exitY=0.5;exitDx=0;exitDy=0;" edge="1" parent="1">
          <mxGeometry relative="1" as="geometry">
            <mxPoint x="358.3299999999999" y="409.5" as="sourcePoint" />
            <mxPoint x="415" y="410" as="targetPoint" />
          </mxGeometry>
        </mxCell>
        <mxCell id="b6-UkwE3wFQKwUGQj949-134" value="" style="rounded=0;orthogonalLoop=1;jettySize=auto;html=1;endArrow=oval;endFill=0;sketch=0;sourcePerimeterSpacing=0;targetPerimeterSpacing=0;endSize=10;exitX=0.014;exitY=0.547;exitDx=0;exitDy=0;exitPerimeter=0;" edge="1" parent="1">
          <mxGeometry relative="1" as="geometry">
            <mxPoint x="451.68000000000006" y="409.9799999999999" as="sourcePoint" />
            <mxPoint x="415" y="409.62" as="targetPoint" />
          </mxGeometry>
        </mxCell>
        <mxCell id="b6-UkwE3wFQKwUGQj949-135" value="" style="rounded=0;orthogonalLoop=1;jettySize=auto;html=1;endArrow=halfCircle;endFill=0;endSize=6;strokeWidth=1;sketch=0;exitX=1;exitY=0.5;exitDx=0;exitDy=0;" edge="1" parent="1">
          <mxGeometry relative="1" as="geometry">
            <mxPoint x="358.6699999999999" y="561.41" as="sourcePoint" />
            <mxPoint x="415.34" y="561.91" as="targetPoint" />
          </mxGeometry>
        </mxCell>
        <mxCell id="b6-UkwE3wFQKwUGQj949-136" value="" style="rounded=0;orthogonalLoop=1;jettySize=auto;html=1;endArrow=oval;endFill=0;sketch=0;sourcePerimeterSpacing=0;targetPerimeterSpacing=0;endSize=10;" edge="1" parent="1">
          <mxGeometry relative="1" as="geometry">
            <mxPoint x="451" y="562" as="sourcePoint" />
            <mxPoint x="416.34" y="561.53" as="targetPoint" />
          </mxGeometry>
        </mxCell>
        <mxCell id="b6-UkwE3wFQKwUGQj949-137" value="Institution Educational" style="text;html=1;align=center;verticalAlign=middle;whiteSpace=wrap;rounded=0;" vertex="1" parent="1">
          <mxGeometry x="5" y="365" width="60" height="30" as="geometry" />
        </mxCell>
        <mxCell id="b6-UkwE3wFQKwUGQj949-138" value="" style="rounded=0;orthogonalLoop=1;jettySize=auto;html=1;endArrow=halfCircle;endFill=0;endSize=6;strokeWidth=1;sketch=0;fontSize=12;curved=1;exitX=0.978;exitY=0.131;exitDx=0;exitDy=0;exitPerimeter=0;entryX=0.935;entryY=0.208;entryDx=0;entryDy=0;entryPerimeter=0;" edge="1" parent="1">
          <mxGeometry relative="1" as="geometry">
            <mxPoint x="570" y="405.66999999999996" as="sourcePoint" />
            <mxPoint x="613.44" y="405.73" as="targetPoint" />
          </mxGeometry>
        </mxCell>
        <mxCell id="b6-UkwE3wFQKwUGQj949-139" value="" style="endArrow=none;html=1;rounded=0;entryX=1;entryY=0.5;entryDx=0;entryDy=0;entryPerimeter=0;" edge="1" parent="1">
          <mxGeometry width="50" height="50" relative="1" as="geometry">
            <mxPoint x="622" y="406" as="sourcePoint" />
            <mxPoint x="652.0000000000001" y="406" as="targetPoint" />
          </mxGeometry>
        </mxCell>
        <mxCell id="b6-UkwE3wFQKwUGQj949-140" value="" style="ellipse;whiteSpace=wrap;html=1;aspect=fixed;" vertex="1" parent="1">
          <mxGeometry x="707" y="400.5" width="11.5" height="11.5" as="geometry" />
        </mxCell>
        <mxCell id="b6-UkwE3wFQKwUGQj949-141" value="" style="endArrow=open;endSize=12;dashed=1;html=1;rounded=0;entryX=0;entryY=0.5;entryDx=0;entryDy=0;exitX=0.75;exitY=0.423;exitDx=0;exitDy=0;exitPerimeter=0;" edge="1" parent="1" target="b6-UkwE3wFQKwUGQj949-140">
          <mxGeometry width="160" relative="1" as="geometry">
            <mxPoint x="654" y="408" as="sourcePoint" />
            <mxPoint x="765" y="405.7" as="targetPoint" />
          </mxGeometry>
        </mxCell>
        <mxCell id="b6-UkwE3wFQKwUGQj949-142" value="" style="rounded=0;orthogonalLoop=1;jettySize=auto;html=1;endArrow=halfCircle;endFill=0;endSize=6;strokeWidth=1;sketch=0;fontSize=12;curved=1;exitX=0.978;exitY=0.131;exitDx=0;exitDy=0;exitPerimeter=0;entryX=0.935;entryY=0.208;entryDx=0;entryDy=0;entryPerimeter=0;" edge="1" parent="1">
          <mxGeometry relative="1" as="geometry">
            <mxPoint x="572" y="561.67" as="sourcePoint" />
            <mxPoint x="615.44" y="561.73" as="targetPoint" />
          </mxGeometry>
        </mxCell>
        <mxCell id="b6-UkwE3wFQKwUGQj949-143" value="" style="endArrow=none;html=1;rounded=0;entryX=1;entryY=0.5;entryDx=0;entryDy=0;entryPerimeter=0;" edge="1" parent="1">
          <mxGeometry width="50" height="50" relative="1" as="geometry">
            <mxPoint x="624" y="562" as="sourcePoint" />
            <mxPoint x="654.0000000000001" y="562" as="targetPoint" />
          </mxGeometry>
        </mxCell>
        <mxCell id="b6-UkwE3wFQKwUGQj949-144" value="" style="ellipse;whiteSpace=wrap;html=1;aspect=fixed;" vertex="1" parent="1">
          <mxGeometry x="709" y="556.5" width="11.5" height="11.5" as="geometry" />
        </mxCell>
        <mxCell id="b6-UkwE3wFQKwUGQj949-145" value="" style="endArrow=open;endSize=12;dashed=1;html=1;rounded=0;entryX=0;entryY=0.5;entryDx=0;entryDy=0;exitX=0.75;exitY=0.423;exitDx=0;exitDy=0;exitPerimeter=0;" edge="1" parent="1" target="b6-UkwE3wFQKwUGQj949-144">
          <mxGeometry width="160" relative="1" as="geometry">
            <mxPoint x="656" y="564" as="sourcePoint" />
            <mxPoint x="767" y="561.7" as="targetPoint" />
          </mxGeometry>
        </mxCell>
        <mxCell id="b6-UkwE3wFQKwUGQj949-146" value="" style="shape=requiredInterface;html=1;verticalLabelPosition=bottom;sketch=0;rotation=-180;" vertex="1" parent="1">
          <mxGeometry x="651" y="396" width="10" height="20" as="geometry" />
        </mxCell>
        <mxCell id="b6-UkwE3wFQKwUGQj949-147" value="" style="shape=requiredInterface;html=1;verticalLabelPosition=bottom;sketch=0;rotation=-180;" vertex="1" parent="1">
          <mxGeometry x="654" y="553" width="10" height="20" as="geometry" />
        </mxCell>
        <mxCell id="b6-UkwE3wFQKwUGQj949-149" value="" style="endArrow=none;html=1;rounded=0;exitX=1;exitY=0.5;exitDx=0;exitDy=0;entryX=0.012;entryY=0.394;entryDx=0;entryDy=0;entryPerimeter=0;" edge="1" parent="1" source="b6-UkwE3wFQKwUGQj949-140" target="b6-UkwE3wFQKwUGQj949-80">
          <mxGeometry width="50" height="50" relative="1" as="geometry">
            <mxPoint x="860" y="460" as="sourcePoint" />
            <mxPoint x="910" y="410" as="targetPoint" />
          </mxGeometry>
        </mxCell>
        <mxCell id="b6-UkwE3wFQKwUGQj949-150" value="" style="endArrow=none;html=1;rounded=0;exitX=1;exitY=0.5;exitDx=0;exitDy=0;entryX=0.002;entryY=0.573;entryDx=0;entryDy=0;entryPerimeter=0;" edge="1" parent="1" source="b6-UkwE3wFQKwUGQj949-144" target="b6-UkwE3wFQKwUGQj949-86">
          <mxGeometry width="50" height="50" relative="1" as="geometry">
            <mxPoint x="900" y="640" as="sourcePoint" />
            <mxPoint x="950" y="590" as="targetPoint" />
          </mxGeometry>
        </mxCell>
      </root>
    </mxGraphModel>
  </diagram>
</mxfile>
